<svg viewBox="0 -30 100 125" width="20" xmlns="http://www.w3.org/2000/svg">
  <path d="M96.1,31.9L88.9,29c-1.4-10-8.6-18.8-19-21.7c-6.3-1.7-12.6-1.1-18.1,1.5C45.1,12,39.7,18,37.5,25.7 c-0.8,2.9-1.1,5.9-0.9,8.8c0.4,0.1,0.8,0.2,1.2,0.3c1.6,0.4,3.2,0.6,4.8,0.6c1.8,0,3.6-0.2,5.3-0.7c0.7-0.2,1.3-0.4,1.9-0.6 c1.4-0.5,2.8-0.8,4.2-0.8c5.3,0,10,3.6,11.4,8.7l0,0.1c2.5,9.2-2.7,18.7-11.7,21.7c-0.3,0.1-0.6,0.2-0.9,0.3 c-0.3,0.1-0.6,0.2-0.9,0.2c-2.1,0.5-4.3,0.8-6.5,0.8c-9.6,0-18.2-4.8-23.5-12.4c-4.9,3.1-10.3,5.4-16,6.7 c-3.6,0.9-4.8,5.5-1.9,7.8c5.5,4.5,12,8,19.3,10c4.4,1.2,8.9,1.8,13.3,1.9v10.6c0,2.2,1.8,4,4,4c2.2,0,4-1.8,4-4V78.5 c2-0.3,4.1-0.7,6.1-1.2v12.3c0,2.2,1.8,4,4,4c2.2,0,4-1.8,4-4v-15C72,68.6,82.9,57.1,87.6,42c0.2-0.5,0.3-1,0.5-1.5 c0-0.1,0.1-0.3,0.1-0.4c0-0.1,0.1-0.3,0.1-0.4c0.1-0.3,0.2-0.7,0.2-1l7.5-2.6C98,35.4,98,32.6,96.1,31.9z M79,26.1 c-0.7,2.4-3.2,3.9-5.6,3.2c-2.4-0.7-3.9-3.2-3.2-5.6c0.7-2.4,3.2-3.9,5.6-3.2C78.3,21.1,79.7,23.6,79,26.1z"/>
  <path d="M51.2,60.4c0.2,0,0.5-0.1,0.7-0.2c0.2-0.1,0.5-0.1,0.7-0.2c7-2.3,11.1-9.7,9.2-16.9l0-0.1c-1.2-4.5-6.1-6.9-10.4-5.3 c-0.8,0.3-1.5,0.5-2.3,0.7c-4.1,1.1-8.2,1.1-12.1,0.2c-4.1-1-7.9-3-11-5.9c-1.8-1.6-4.6-0.6-4.8,1.8c-0.2,2.8,0,5.6,0.8,8.5 C25.3,55.8,38.3,63.5,51.2,60.4z"/>
</svg>