<svg viewBox="0 -30 100 125" width="30" xmlns="http://www.w3.org/2000/svg">
  <path d="M5273.1,2400.1v-2c0-2.8-5-4-9.7-4s-9.7,1.3-9.7,4v2c0,1.8,0.7,3.6,2,4.9l5,4.9c0.3,0.3,0.4,0.6,0.4,1v6.4 c0,0.4,0.2,0.7,0.6,0.8l2.9,0.9c0.5,0.1,1-0.2,1-0.8v-7.2c0-0.4,0.2-0.7,0.4-1l5.1-5C5272.4,2403.7,5273.1,2401.9,5273.1,2400.1z M5263.4,2400c-4.8,0-7.4-1.3-7.5-1.8v0c0.1-0.5,2.7-1.8,7.5-1.8c4.8,0,7.3,1.3,7.5,1.8C5270.7,2398.7,5268.2,2400,5263.4,2400z"/>
  <path d="M5268.4,2410.3c-0.6,0-1,0.4-1,1c0,0.6,0.4,1,1,1h4.3c0.6,0,1-0.4,1-1c0-0.6-0.4-1-1-1H5268.4z"/>
  <path d="M5272.7,2413.7h-4.3c-0.6,0-1,0.4-1,1c0,0.6,0.4,1,1,1h4.3c0.6,0,1-0.4,1-1C5273.7,2414.1,5273.3,2413.7,5272.7,2413.7z"/>
  <path d="M5272.7,2417h-4.3c-0.6,0-1,0.4-1,1c0,0.6,0.4,1,1,1h4.3c0.6,0,1-0.4,1-1C5273.7,2417.5,5273.3,2417,5272.7,2417z"/>
  <path d="M25.4,56.2h-5.2V10.9c0-2.2-1.8-4-4-4s-4,1.8-4,4v45.3H7c-2.5,0-4.5,2-4.5,4.5v9.1c0,2.5,2,4.5,4.5,4.5h5.2v14.8 c0,2.2,1.8,4,4,4s4-1.8,4-4V74.3h5.2c2.5,0,4.5-2,4.5-4.5v-9.1C29.9,58.2,27.8,56.2,25.4,56.2z"/>
  <path d="M59.2,25.7H54V10.9c0-2.2-1.8-4-4-4s-4,1.8-4,4v14.8h-5.2c-2.5,0-4.5,2-4.5,4.5v9.1c0,2.5,2,4.5,4.5,4.5H46v45.3 c0,2.2,1.8,4,4,4s4-1.8,4-4V43.8h5.2c2.5,0,4.5-2,4.5-4.5v-9.1C63.7,27.7,61.7,25.7,59.2,25.7z"/>
  <path d="M93,56.2h-5.2V10.9c0-2.2-1.8-4-4-4c-2.2,0-4,1.8-4,4v45.3h-5.2c-2.5,0-4.5,2-4.5,4.5v9.1c0,2.5,2,4.5,4.5,4.5h5.2v14.8 c0,2.2,1.8,4,4,4c2.2,0,4-1.8,4-4V74.3H93c2.5,0,4.5-2,4.5-4.5v-9.1C97.5,58.2,95.5,56.2,93,56.2z"/>
</svg>
