<svg viewBox="0 -25 100 125" xmlns="http://www.w3.org/2000/svg" width="25">
<style type="text/css">
	.st0{fill:url(#SVGID_1_);}
	.st1{fill:#FFFFFF;}
	.st2{fill:#E0E0E0;}
	.st3{fill:#F4F4F4;}
	.st4{fill:url(#SVGID_2_);}
	.st5{fill:#EAEAEA;}
	.st6{opacity:0.3;fill:#FFFFFF;}
	.st7{opacity:0.2;fill:#FFFFFF;}
	.st8{fill:#EFEFEF;}
	.st9{opacity:0.1;fill:#FFFFFF;}
	.st10{opacity:5.000000e-02;fill:#FFFFFF;}
	.st11{fill:#EDEDED;}
	.st12{fill:#191919;}
	.st13{fill:#353535;}
	.st14{fill:#EDEBEB;}
	.st15{fill:#DDDBDB;}
</style>
<g id="power">
	<linearGradient id="SVGID_1_" gradientUnits="userSpaceOnUse" x1="2.3531" y1="49.824" x2="98" y2="49.824">
		<stop  offset="0" style="stop-color:#FFFFFF"/>
		<stop  offset="0.1655" style="stop-color:#EFEFEF"/>
		<stop  offset="0.4397" style="stop-color:#DCDCDC"/>
		<stop  offset="0.717" style="stop-color:#D0D0D0"/>
		<stop  offset="1" style="stop-color:#CCCCCC"/>
	</linearGradient>
	<polygon class="st0" points="50.2,2 2.4,49.8 50.2,97.6 98,49.8 	"/>
	<path class="st1" d="M51.2,8.7"/>
	<polygon class="st2" points="51.2,8.7 59.7,53.4 38.7,57.3 	"/>
	<polygon class="st1" points="51.2,8.7 53.8,54.4 60.4,54.2 	"/>
	<polygon class="st3" points="51.4,9.6 47.1,56.1 54.2,54.2 	"/>
	<line class="st1" x1="53.2" y1="12.3" x2="81" y2="50.4"/>
	<linearGradient id="SVGID_2_" gradientUnits="userSpaceOnUse" x1="51.2255" y1="8.6899" x2="51.2255" y2="8.6899">
		<stop  offset="0" style="stop-color:#FFFFFF"/>
		<stop  offset="0.1655" style="stop-color:#EFEFEF"/>
		<stop  offset="0.4397" style="stop-color:#DCDCDC"/>
		<stop  offset="0.717" style="stop-color:#D0D0D0"/>
		<stop  offset="1" style="stop-color:#CCCCCC"/>
	</linearGradient>
	<path class="st4" d="M51.2,8.7"/>
	<polygon class="st1" points="51.2,8.7 70.9,52.4 92.9,48.8 	"/>
	<path class="st1" d="M52.4,7.4"/>
	<path class="st1" d="M56.7,59.5"/>
	<polygon class="st1" points="60.4,57.3 50.6,91.2 46.9,59.4 	"/>
	<polygon class="st5" points="60.4,57.3 51.2,89.5 84.4,53.1 67.7,55.2 	"/>
	<polygon class="st6" points="46.9,10.7 22.6,52.6 34.6,57.1 	"/>
	<polygon class="st1" points="54.2,58.4 51,90.7 60.4,57.3 	"/>
	<polygon class="st7" points="67.5,56.7 50.6,91.2 60.8,58 	"/>
	<polygon class="st1" points="71.9,55.2 52.6,88.2 81.7,54 	"/>
	<polygon class="st8" points="46.9,59.4 50.6,91.2 54.1,58.7 	"/>
	<polygon class="st9" points="46.3,11.8 15,50.4 26.7,53.9 	"/>
	<polygon class="st10" points="8.1,48.6 17.8,51.4 45.1,12.8 	"/>
	<polygon class="st1" points="21.8,57.5 44.6,86.4 26.2,58.2 	"/>
	<polygon class="st11" points="17.2,55.8 43.8,85.9 12.6,54.3 	"/>
	<polygon class="st1" points="46.9,10.7 14.8,51.7 24.5,55 	"/>
	<g id="triangle">
		<polygon class="st12" points="6.3,49.6 35.9,59.2 49.5,6.1 		"/>
		<path class="st12" d="M46.7,11L34.9,57.3L9,48.9L46.7,11 M49.5,6.1L6.3,49.6l29.6,9.6L49.5,6.1L49.5,6.1z"/>
	</g>
	<polygon class="st3" points="51.4,9.6 60.5,54.3 66.7,53.1 	"/>
	<polygon class="st13" points="46.5,13.5 28.9,55.4 34.6,57.3 	"/>
	<polygon class="st14" points="51,8.3 81.3,51.1 84.4,50 	"/>
	<polygon class="st1" points="84,52.6 50.6,91.2 90.6,51.6 	"/>
	<polygon class="st1" points="52.1,9.3 88,49.6 92.8,49 	"/>
	<g>
		<g>
			<path d="M50.2,97.6L2.4,49.8L50.2,2L98,49.8L50.2,97.6z M4.6,49.8l45.5,45.5l45.5-45.5L50.2,4.3L4.6,49.8z"/>
		</g>
		<g>
			<path d="M94.2,49.5l-57.5,9.7L50.4,5.7 M51.2,8.7L38.7,57.3l52.3-8.8L51.2,8.7z"/>
		</g>
		<g>
			<path d="M49.1,93.1L6.7,50.7l29.1,9.4L49.1,93.1z M12.6,54.3l32.1,32.1l-10-25L12.6,54.3z"/>
		</g>
		<g>
			<g>
				<path d="M50,94L36.4,60.1l57.2-9.6L50,94z M38.5,61.3l12,29.9L89,52.8L38.5,61.3z"/>
				<path class="st15" d="M49.9,94.4L36.1,60l0.2,0l57.8-9.7L49.9,94.4z M36.6,60.2l13.5,33.5l43-43L36.6,60.2z M50.5,91.6
					L38.3,61.2l0.2,0l51-8.6L50.5,91.6z M38.8,61.5l11.8,29.4l37.8-37.8L38.8,61.5z"/>
			</g>
		</g>
		<rect x="58.9" y="7.3" transform="matrix(0.9392 -0.3433 0.3433 0.9392 -6.9405 22.2121)" width="0.7" height="46.9"/>
		<polygon points="50.7,92.8 50,92.5 67.4,55.9 68.8,55.2 		"/>
		<rect x="7.6" y="31.6" transform="matrix(0.5479 -0.8365 0.8365 0.5479 -11.7959 42.0564)" width="50.8" height="0.7"/>
		<rect x="32.2" y="51.3" transform="matrix(0.7789 -0.6272 0.6272 0.7789 -38.0357 36.3781)" width="0.7" height="41.7"/>
		<path d="M47.4,9.8l-12.2,48L8.3,49.1L47.4,9.8 M49.5,6.1L6.3,49.6l29.6,9.6L49.5,6.1L49.5,6.1z"/>
	</g>
</g>
</svg>
