<svg xmlns="http://www.w3.org/2000/svg" version="1.1" x="0px" y="0px" width="30" viewBox="0 -5 100 100"><circle cx="50" cy="50" r="12"/><path d="M93.3,45.8h-4.9c-2-17.9-16.2-32.2-34.1-34.1V6.7c0-2.3-1.9-4.2-4.2-4.2c-2.3,0-4.2,1.9-4.2,4.2v4.9 c-17.9,2-32.2,16.2-34.1,34.1H6.7c-2.3,0-4.2,1.9-4.2,4.2c0,2.3,1.9,4.2,4.2,4.2h4.9c2,17.9,16.2,32.2,34.1,34.1v4.9 c0,2.3,1.9,4.2,4.2,4.2c2.3,0,4.2-1.9,4.2-4.2v-4.9c17.9-2,32.2-16.2,34.1-34.1h4.9c2.3,0,4.2-1.9,4.2-4.2 C97.5,47.7,95.6,45.8,93.3,45.8z M54.2,79.8v-4.3c0-2.3-1.9-4.2-4.2-4.2c-2.3,0-4.2,1.9-4.2,4.2v4.3 c-13.2-1.9-23.7-12.3-25.6-25.6h4.3c2.3,0,4.2-1.9,4.2-4.2c0-2.3-1.9-4.2-4.2-4.2h-4.3c1.9-13.2,12.3-23.7,25.6-25.6v4.3 c0,2.3,1.9,4.2,4.2,4.2c2.3,0,4.2-1.9,4.2-4.2v-4.3c13.2,1.9,23.7,12.3,25.6,25.6h-4.3c-2.3,0-4.2,1.9-4.2,4.2 c0,2.3,1.9,4.2,4.2,4.2h4.3C77.9,67.5,67.5,77.9,54.2,79.8z"/></svg>