<svg xmlns="http://www.w3.org/2000/svg" viewBox="0 0 100 100" width="40">
  <g>
    <path d="M5273.1,2400.1v-2c0-2.8-5-4-9.7-4s-9.7,1.3-9.7,4v2c0,1.8,0.7,3.6,2,4.9l5,4.9c0.3,0.3,0.4,0.6,0.4,1v6.4 c0,0.4,0.2,0.7,0.6,0.8l2.9,0.9c0.5,0.1,1-0.2,1-0.8v-7.2c0-0.4,0.2-0.7,0.4-1l5.1-5C5272.4,2403.7,5273.1,2401.9,5273.1,2400.1z M5263.4,2400c-4.8,0-7.4-1.3-7.5-1.8v0c0.1-0.5,2.7-1.8,7.5-1.8c4.8,0,7.3,1.3,7.5,1.8C5270.7,2398.7,5268.2,2400,5263.4,2400z"/>
    <path d="M5268.4,2410.3c-0.6,0-1,0.4-1,1c0,0.6,0.4,1,1,1h4.3c0.6,0,1-0.4,1-1c0-0.6-0.4-1-1-1H5268.4z"/>
    <path d="M5272.7,2413.7h-4.3c-0.6,0-1,0.4-1,1c0,0.6,0.4,1,1,1h4.3c0.6,0,1-0.4,1-1C5273.7,2414.1,5273.3,2413.7,5272.7,2413.7z"/>
    <path d="M5272.7,2417h-4.3c-0.6,0-1,0.4-1,1c0,0.6,0.4,1,1,1h4.3c0.6,0,1-0.4,1-1C5273.7,2417.5,5273.3,2417,5272.7,2417z" />
  </g>
  <g>
    <path d="M53.7,13.1V6.2c0-2.1-1.7-3.7-3.7-3.7c-2.1,0-3.7,1.7-3.7,3.7v6.9c0,2.1,1.7,3.7,3.7,3.7C52.1,16.9,53.7,15.2,53.7,13.1z"/>
    <path d="M34.7,18.2c0.7,1.2,1.9,1.9,3.2,1.9c0.7,0,1.3-0.2,1.9-0.5c1.8-1,2.4-3.3,1.4-5.1l-3.4-6c-1-1.8-3.3-2.4-5.1-1.4 c-0.9,0.5-1.5,1.3-1.7,2.3c-0.3,1-0.1,2,0.4,2.8L34.7,18.2z"/>
    <path d="M60.2,19.6c0.6,0.3,1.2,0.5,1.9,0.5c1.3,0,2.6-0.7,3.2-1.9l3.4-6c0.5-0.9,0.6-1.9,0.4-2.8c-0.3-1-0.9-1.8-1.7-2.3 c-1.8-1-4.1-0.4-5.1,1.4l-3.4,6C57.8,16.2,58.4,18.5,60.2,19.6z"/>
    <path d="M9.7,80.9c-0.8,0.5-1,1.6-0.4,2.4l9.4,13.5c0.5,0.8,1.6,1,2.4,0.4l7.2-5L16.9,75.9L9.7,80.9z"/>
    <path d="M43.4,23.8c-1.1,0-2.2,0.5-2.9,1.4l-19.4,23c-1.8,2.2-2.8,5-2.6,7.8l0.9,16.3l11.9,17.1l12.2-15.6 c1.3-1.7,2.1-3.8,2.1-5.9l0.1-19.3c0-0.9-0.4-1.8-1-2.4c-0.7-0.6-1.5-1-2.4-1c-1.6,0-2.9,1.1-3.3,2.6l-0.2,0.8 c-1,4.1-1.7,8.4-2.1,12.6l-0.3,3.7c-0.1,1.1-1.1,2-2.2,1.9c-1.1-0.1-2-1.1-1.9-2.2l0.3-3.7c0.3-4.5,1.1-9,2.2-13.3l0.2-0.8 c0.8-3.3,3.8-5.6,7.2-5.7c0.3,0,0.6,0,0.9,0l4.2-11.9c0.5-1.4,0.2-3-0.9-4.1C45.6,24.2,44.6,23.8,43.4,23.8z"/>
    <path d="M90.3,80.9l-7.2-5L71.8,92.2l7.2,5c0.8,0.5,1.8,0.3,2.4-0.4l9.4-13.5C91.3,82.5,91.1,81.4,90.3,80.9z"/>
    <path d="M81.5,56.1c0.2-2.9-0.8-5.6-2.6-7.8l-19.4-23c-0.7-0.9-1.8-1.4-2.9-1.4c-1.1,0-2.2,0.4-3,1.2c-1.1,1.1-1.4,2.7-0.9,4.1 l4.2,11.9c0.3,0,0.6,0,0.9,0c3.4,0,6.4,2.4,7.2,5.7l0.2,0.8c1.1,4.4,1.8,8.8,2.2,13.3l0.3,3.7c0.1,1.1-0.8,2.1-1.9,2.2 c-1.1,0.1-2.1-0.8-2.2-1.9l-0.3-3.7c-0.3-4.2-1-8.5-2.1-12.6L61,47.7c-0.4-1.5-1.7-2.6-3.3-2.6c-0.9,0-1.8,0.3-2.4,1 c-0.6,0.6-1,1.5-1,2.4l0.1,19.3c0,2.1,0.7,4.3,2.1,5.9l12.2,15.6l11.9-17.1L81.5,56.1z"/>
  </g>
</svg>