<svg xmlns="http://www.w3.org/2000/svg" x="0px" y="0px" width="40" viewBox="0 -25 100 100"><path d="M62.9,29.2L47,71.9c-0.2,0.6-0.8,1-1.5,1h-7c-1.1,0-1.9-1.1-1.5-2.2L53,28.1c0.2-0.6,0.8-1,1.5-1h7 C62.6,27.1,63.3,28.2,62.9,29.2z"/><path d="M24.8,73L3,51.1c-0.6-0.6-0.6-1.7,0-2.3L24.8,27c0.6-0.6,1.6-0.6,2.3,0l4.6,4.6c0.6,0.6,0.6,1.6,0,2.3L15.6,50l16.1,16.1 c0.6,0.6,0.6,1.6,0,2.3L27.1,73C26.5,73.6,25.5,73.6,24.8,73z"/><path d="M72.9,73l-4.6-4.6c-0.6-0.6-0.6-1.6,0-2.3L84.4,50L68.3,33.9c-0.6-0.6-0.6-1.6,0-2.3l4.6-4.6c0.6-0.6,1.6-0.6,2.3,0 L97,48.9c0.6,0.6,0.6,1.7,0,2.3L75.2,73C74.5,73.6,73.5,73.6,72.9,73z"/></svg>