<svg viewBox="0 0 100 100" width="30" xmlns="http://www.w3.org/2000/svg">
    <path d="M94.2,41.2L82.3,40c-0.4,0-0.8-0.3-0.9-0.7c-0.5-1.3-1-2.6-1.6-3.9c-0.2-0.4-0.1-0.8,0.1-1.2l7.5-9.2 c1.2-1.5,1.1-3.6-0.3-5L80,12.8c-1.3-1.3-3.5-1.5-5-0.3l-9.2,7.5c-0.3,0.3-0.8,0.3-1.2,0.1c-1.3-0.6-2.5-1.2-3.9-1.6 c-0.4-0.1-0.7-0.5-0.7-0.9L58.8,5.8c-0.2-1.9-1.8-3.3-3.7-3.3H44.9c-1.9,0-3.5,1.4-3.7,3.3L40,17.7c0,0.4-0.3,0.8-0.7,0.9 c-1.3,0.5-2.6,1-3.9,1.6c-0.4,0.2-0.8,0.1-1.2-0.1L25,12.6c-1.5-1.2-3.6-1.1-5,0.3L12.8,20c-1.3,1.3-1.5,3.5-0.3,5l7.5,9.2 c0.3,0.3,0.3,0.8,0.1,1.2c-0.6,1.3-1.2,2.5-1.6,3.9c-0.1,0.4-0.5,0.7-0.9,0.7L5.8,41.2c-1.9,0.2-3.3,1.8-3.3,3.7v10.2 c0,1.9,1.4,3.5,3.3,3.7L17.7,60c0.4,0,0.8,0.3,0.9,0.7c0.5,1.3,1,2.6,1.6,3.9c0.2,0.4,0.1,0.8-0.1,1.2L12.6,75 c-1.2,1.5-1.1,3.6,0.3,5l7.2,7.2c1.3,1.3,3.5,1.5,5,0.3l9.2-7.5c0.3-0.3,0.8-0.3,1.2-0.1c1.3,0.6,2.5,1.2,3.9,1.6 c0.4,0.1,0.7,0.5,0.7,0.9l1.2,11.8c0.2,1.9,1.8,3.3,3.7,3.3h10.2c1.9,0,3.5-1.4,3.7-3.3L60,82.3c0-0.4,0.3-0.8,0.7-0.9 c1.3-0.5,2.6-1,3.9-1.6c0.4-0.2,0.8-0.1,1.2,0.1l9.2,7.5c1.5,1.2,3.6,1.1,5-0.3l7.2-7.2c1.3-1.3,1.5-3.5,0.3-5l-7.5-9.2 c-0.3-0.3-0.3-0.8-0.1-1.2c0.6-1.3,1.2-2.5,1.6-3.9c0.1-0.4,0.5-0.7,0.9-0.7l11.8-1.2c1.9-0.2,3.3-1.8,3.3-3.7V44.9 C97.5,43,96.1,41.4,94.2,41.2z M39.8,57.6c0.6,0.6,0.5,1.5-0.1,2.1l-2.2,2.1c-0.3,0.3-0.6,0.4-1,0.4c0,0,0,0,0,0 c-0.4,0-0.8-0.2-1-0.5L25.3,51c-0.5-0.6-0.5-1.5,0-2l10.1-10.7c0.3-0.3,0.6-0.5,1-0.5c0,0,0,0,0,0c0.4,0,0.7,0.1,1,0.4l2.2,2.1 c0.6,0.6,0.6,1.5,0.1,2.1L32.6,50L39.8,57.6z M56,38.8l-6.1,24c-0.1,0.4-0.3,0.7-0.7,0.9c-0.2,0.1-0.5,0.2-0.8,0.2 c-0.1,0-0.2,0-0.4,0l-3-0.8c-0.4-0.1-0.7-0.3-0.9-0.7C44,62,43.9,61.6,44,61.2l6.1-24c0.1-0.4,0.3-0.7,0.7-0.9s0.8-0.3,1.1-0.2 l3,0.8C55.7,37.1,56.2,38,56,38.8z M74.7,51L64.6,61.7c-0.3,0.3-0.6,0.5-1,0.5c0,0,0,0,0,0c-0.4,0-0.7-0.1-1-0.4l-2.2-2.1 c-0.3-0.3-0.5-0.6-0.5-1c0-0.4,0.1-0.8,0.4-1.1l7.1-7.6l-7.1-7.6c-0.3-0.3-0.4-0.7-0.4-1.1c0-0.4,0.2-0.8,0.5-1l2.2-2.1 c0.6-0.6,1.5-0.5,2.1,0.1L74.7,49C75.3,49.5,75.3,50.4,74.7,51z" />
</svg>