<svg xmlns="http://www.w3.org/2000/svg" x="0px" y="0px" width="35" viewBox="0 -10 100 100"><polygon points="20,80 36.2,80 36.2,63.8 31,63.8 31,74.7 25.3,74.7 25.3,47.2 52.8,47.2 52.8,69 69,69 69,63.8 58.1,63.8  58.1,47.2 69,47.2 69,41.9 25.3,41.9 25.3,25.3 41.9,25.3 41.9,31 31,31 31,36.2 47.2,36.2 47.2,25.3 58.1,25.3 58.1,20 20,20"/><polygon points="80,80 80,20 63.8,20 63.8,31 52.8,31 52.8,36.2 69,36.2 69,25.3 74.7,25.3 74.7,52.8 63.8,52.8 63.8,58.1 74.7,58.1 74.7,74.7 47.2,74.7 47.2,52.8 31,52.8 31,58.1 41.9,58.1 41.9,80"/><polygon points="85.7,85.7 14.3,85.7 14.3,52.8 2.5,52.8 2.5,58.1 9.1,58.1 9.1,90.9 90.9,90.9 90.9,58.1 97.5,58.1 97.5,52.8 85.7,52.8"/><polygon points="90.9,41.9 90.9,9.1 9.1,9.1 9.1,41.9 2.5,41.9 2.5,47.2 14.3,47.2 14.3,14.3 85.7,14.3 85.7,47.2 97.5,47.2 97.5,41.9"/></svg>