<svg viewBox="0 0 100 100" width="30" xmlns="http://www.w3.org/2000/svg">
  <path d="M5268.4,2410.3c-0.6,0-1,0.4-1,1c0,0.6,0.4,1,1,1h4.3c0.6,0,1-0.4,1-1c0-0.6-0.4-1-1-1H5268.4z"/>
  <path d="M5272.7,2413.7h-4.3c-0.6,0-1,0.4-1,1c0,0.6,0.4,1,1,1h4.3c0.6,0,1-0.4,1-1C5273.7,2414.1,5273.3,2413.7,5272.7,2413.7z"/>
  <path d="M5272.7,2417h-4.3c-0.6,0-1,0.4-1,1c0,0.6,0.4,1,1,1h4.3c0.6,0,1-0.4,1-1C5273.7,2417.5,5273.3,2417,5272.7,2417z"/>
  <path d="M50,2.5C23.8,2.5,2.5,23.8,2.5,50S23.8,97.5,50,97.5c26.2,0,47.5-21.3,47.5-47.5S76.2,2.5,50,2.5z M50,64.4    c5.7,0,10.6-3.3,12.9-8.1h12C72.1,67.4,62,75.7,50,75.7c-14.2,0-25.7-11.5-25.7-25.7c0-14.2,11.5-25.7,25.7-25.7    c12,0,22.1,8.3,24.9,19.5h-12c-2.3-4.8-7.2-8.1-12.9-8.1c-7.9,0-14.4,6.5-14.4,14.4S42.1,64.4,50,64.4z"/>
</svg>