<svg viewBox="0 -10 100 100" width="40" xmlns="http://www.w3.org/2000/svg">
    <path d="M94.3,69.4l-4.7-14c-1.4-4.2-4.7-7.4-8.9-8.8l-12.5-4c2.1-3.3,3.4-7.3,3.4-11.5c0-0.1,0-0.1,0-0.2 c6.8-1.7,11.1-4.1,11.1-6.9c0-2.9-5-5.5-12.7-7.2l-2.5-9.9c-0.8-3.3-4.3-5.2-7.4-4.1l-8.3,2.7c-1.2,0.4-2.5,0.4-3.6,0l-8.3-2.7 c-3.2-1.1-6.6,0.9-7.4,4.1L30,16.8c-7.7,1.7-12.7,4.3-12.7,7.2c0,2.7,4.3,5.2,11.1,6.9c0,0.1,0,0.1,0,0.2c0,4.3,1.3,8.2,3.4,11.5 l-12.5,4c-4.2,1.4-7.5,4.6-8.9,8.8l-4.7,14c-2,5.9,1.5,12.3,7.7,13.6l7.7,1.7l-3.3-19.4c-0.4-2.5,0.3-5,1.9-6.9 c1.6-1.9,4-3,6.5-3h47.9c2.5,0,4.9,1.1,6.5,3c1.6,1.9,2.3,4.4,1.9,6.9L79,84.8l7.7-1.7C92.8,81.7,96.3,75.3,94.3,69.4z M50,47.1 c-8.6,0-15.6-6.7-16-15.1c4.7,0.8,10.2,1.2,16,1.2c5.8,0,11.3-0.4,16-1.2C65.6,40.4,58.6,47.1,50,47.1z" />
    <path d="M73.9,60.9H26.1c-1.9,0-3.3,1.7-3,3.5L28.2,95c0.2,1.5,1.5,2.5,3,2.5h37.6c1.5,0,2.7-1.1,3-2.5l5.1-30.5 C77.2,62.6,75.8,60.9,73.9,60.9z M50,82.9c-2.1,0-3.7-1.7-3.7-3.7c0-2.1,1.7-3.7,3.7-3.7c2.1,0,3.7,1.7,3.7,3.7 C53.7,81.3,52.1,82.9,50,82.9z" />
</svg>