<svg
  xmlns="http://www.w3.org/2000/svg"
  width="40px"
  height="40px"
  viewBox="0 0 100 100"
>
  <path d="M61.1,80.2H38.9c-0.6,0-1.1,0.5-1.1,1.1v7.8c0,0.6,0.5,1.1,1.1,1.1h2.6c0.7,4.1,4.2,7.2,8.5,7.2s7.8-3.1,8.5-7.2h2.6     c0.6,0,1.1-0.5,1.1-1.1v-7.8C62.3,80.8,61.8,80.2,61.1,80.2z" />
  <path d="M50,15.4c1.6,0,2.9-1.3,2.9-2.9V5.4c0-1.6-1.3-2.9-2.9-2.9c-1.6,0-2.9,1.3-2.9,2.9v7.1C47.1,14.1,48.4,15.4,50,15.4z" />
  <path d="M31.1,18.3c0.5,0.9,1.5,1.4,2.5,1.4c0.5,0,1-0.1,1.4-0.4c1.4-0.8,1.8-2.6,1.1-3.9l-3.6-6.2c-0.8-1.4-2.6-1.8-3.9-1.1     c-1.4,0.8-1.8,2.6-1.1,3.9L31.1,18.3z" />
  <path d="M23,26.4l-6.2-3.6c-1.4-0.8-3.1-0.3-3.9,1.1c-0.8,1.4-0.3,3.1,1.1,3.9l6.2,3.6c0.5,0.3,0.9,0.4,1.4,0.4     c1,0,2-0.5,2.5-1.4C24.9,28.9,24.4,27.2,23,26.4z" />
  <path d="M20.1,45.3c0-1.6-1.3-2.9-2.9-2.9h-7.1c-1.6,0-2.9,1.3-2.9,2.9c0,1.6,1.3,2.9,2.9,2.9h7.1C18.8,48.2,20.1,46.9,20.1,45.3     z" />
  <path d="M20.1,59.2L14,62.8c-1.4,0.8-1.8,2.6-1.1,3.9c0.5,0.9,1.5,1.4,2.5,1.4c0.5,0,1-0.1,1.4-0.4l6.2-3.6     c1.4-0.8,1.8-2.6,1.1-3.9C23.3,58.9,21.5,58.4,20.1,59.2z" />
  <path d="M86,62.8l-6.2-3.6c-1.4-0.8-3.1-0.3-3.9,1.1c-0.8,1.4-0.3,3.1,1.1,3.9l6.2,3.6c0.5,0.3,0.9,0.4,1.4,0.4     c1,0,2-0.5,2.5-1.4C87.9,65.3,87.4,63.6,86,62.8z" />
  <path d="M89.9,42.4h-7.1c-1.6,0-2.9,1.3-2.9,2.9c0,1.6,1.3,2.9,2.9,2.9h7.1c1.6,0,2.9-1.3,2.9-2.9C92.8,43.7,91.5,42.4,89.9,42.4     z" />
  <path d="M78.4,31.8c0.5,0,1-0.1,1.4-0.4l6.2-3.6c1.4-0.8,1.8-2.6,1.1-3.9c-0.8-1.4-2.6-1.8-3.9-1.1L77,26.4     c-1.4,0.8-1.8,2.6-1.1,3.9C76.5,31.2,77.4,31.8,78.4,31.8z" />
  <path d="M65,19.4c0.5,0.3,0.9,0.4,1.4,0.4c1,0,2-0.5,2.5-1.4l3.6-6.2c0.8-1.4,0.3-3.1-1.1-3.9c-1.4-0.8-3.1-0.3-3.9,1.1l-3.6,6.2     C63.1,16.8,63.6,18.6,65,19.4z" />
  <path
    d="M51.1,20.9c-8-0.4-15.5,3.1-20.6,9.6c-2.7,3.4-4.4,7.6-4.8,11.9c-0.7,6.6,1.1,12.9,5.1,18c2.9,3.7,5,7.3,6.2,11l0.5,1.5     c0.2,0.7,0.9,1.2,1.6,1.2h21.8c0.7,0,1.4-0.5,1.6-1.2l0.5-1.5c1.2-3.6,3.1-7.1,5.9-10.7c2.2-2.8,3.9-6,4.8-9.5     C77.5,35.8,65.9,21.5,51.1,20.9z M46.8,35.6c0-1.8,1.5-3.2,3.2-3.2c1.8,0,3.2,1.5,3.2,3.2v14.2c0,1.8-1.5,3.2-3.2,3.2     c-1.8,0-3.2-1.5-3.2-3.2V35.6z M50,63.3c-1.9,0-3.4-1.5-3.4-3.4c0-1.9,1.5-3.4,3.4-3.4c1.9,0,3.4,1.5,3.4,3.4     C53.4,61.8,51.9,63.3,50,63.3z"
  />
</svg>
