<svg viewBox="0 -10 100 100" width="40" xmlns="http://www.w3.org/2000/svg">
  <path d="M83.5,21.9c0-6.1-1.9-11.1-5.6-14.6c-3.2-3.1-7.6-4.7-12.4-4.7c-6.2,0-12,2.8-15.5,7.3c-3.5-4.5-9.3-7.3-15.5-7.3    c-4.8,0-9.2,1.7-12.4,4.7c-3.7,3.5-5.6,8.5-5.6,14.6c0,16,20.6,30.8,28.7,36l-1.9,4.8c-0.6,1.6,0.6,3.4,2.3,3.4h2.1    c0,2-0.3,4.8-1.4,7.5c-1.8,4.6-0.4,8.1,0.7,10.9c0.4,0.9,0.7,1.8,0.9,2.7c0.6,3-0.3,7.3-0.3,7.4c-0.3,1.3,0.6,2.6,1.9,2.8    c0.2,0,0.3,0,0.5,0c1.1,0,2.1-0.8,2.3-1.9c0-0.2,1-5.2,0.3-9.2c-0.2-1.3-0.7-2.5-1.2-3.6c-1-2.4-1.8-4.5-0.6-7.4    c1.3-3.4,1.7-6.7,1.7-9.2h2c1.8,0,3-1.8,2.3-3.4l-1.9-4.8C63,52.6,83.5,37.8,83.5,21.9z M62.3,39.5c-0.6,0.6-1.4,0.8-2.2,0.8    c-0.9,0-1.7-0.3-2.3-1c-1.2-1.3-1.1-3.3,0.2-4.5c6.7-6.2,9.1-10.8,9.1-12.9c0-1.6-0.3-2.5-0.5-2.7c-1.1-1.3-1.1-3.3,0.1-4.5    c1.2-1.2,3.1-1.3,4.3-0.1c2,1.9,2.5,5.1,2.5,7.3C73.4,26.7,69.7,32.7,62.3,39.5z"/>
</svg>