<svg viewBox="0 -15 100 100" width="40" xmlns="http://www.w3.org/2000/svg">
    <polygon points="35.9,27.2 30.9,27.2 30.9,47.5 15.7,47.5 15.7,32.3 20.7,32.3 20.7,42.4 25.8,42.4 25.8,27.2 15.7,27.2 15.7,22.1 41,22.1 41,32.3 46.1,32.3 46.1,22.1 71.4,22.1 71.4,27.2 51.1,27.2 51.1,32.3 76.5,32.3 76.5,17.1 10.6,17.1 10.6,52.5 35.9,52.5" />
    <polygon points="51.1,52.5 71.4,52.5 71.4,57.6 51.1,57.6 51.1,62.7 61.3,62.7 61.3,72.8 66.3,72.8 66.3,62.7 71.4,62.7 71.4,77.9 56.2,77.9 56.2,67.7 20.7,67.7 20.7,72.8 51.1,72.8 51.1,77.9 15.7,77.9 15.7,67.7 10.6,67.7 10.6,82.9 76.5,82.9 76.5,47.5 51.1,47.5" />
    <polygon points="97.5,39.9 81.5,28.9 81.5,37.4 41,37.4 41,57.6 2.5,57.6 2.5,62.7 46.1,62.7 46.1,42.4 81.5,42.4 81.5,50.9" />
</svg>